HIERARCHY
ROOT Hips
{
  OFFSET 49.0911 95.5618 6.87032
  CHANNELS 6 Xposition Yposition Zposition Zrotation Xrotation Yrotation
  JOINT spine
  {
    OFFSET 0 7.96568 0.458067
    CHANNELS 3 Zrotation Xrotation Yrotation
    JOINT spine1
    {
      OFFSET 0 10.2431 0
      CHANNELS 3 Zrotation Xrotation Yrotation
      JOINT spine2
      {
        OFFSET 0 9.81475 0
        CHANNELS 3 Zrotation Xrotation Yrotation
        JOINT Neck
        {
          OFFSET 0 25.1986 1.20138
          CHANNELS 3 Zrotation Xrotation Yrotation
          JOINT Head
          {
            OFFSET 0 7.61315 0
            CHANNELS 3 Zrotation Xrotation Yrotation
            End Site
            {
              OFFSET 0 18.4281 -6.07733
            }
          }
        }
        JOINT RightShoulder
        {
          OFFSET -4.1327 10.5992 -0.575451
          CHANNELS 3 Zrotation Xrotation Yrotation
          JOINT RightArm
          {
            OFFSET 0 13.9018 0
            CHANNELS 3 Zrotation Xrotation Yrotation
            JOINT RightArmRoll
            {
              OFFSET 0 7.01788 0
              CHANNELS 3 Zrotation Xrotation Yrotation
              JOINT RightForeArm
              {
                OFFSET 0 20.4406 0
                CHANNELS 3 Zrotation Xrotation Yrotation
                JOINT RightForeArmRoll
                {
                  OFFSET 0 7.87515 0
                  CHANNELS 3 Zrotation Xrotation Yrotation
                  JOINT RightHand
                  {
                    OFFSET 0 15.8037 0
                    CHANNELS 3 Zrotation Xrotation Yrotation
                    End Site
                    {
                      OFFSET 0 0 0
                    }
                  }
                }
              }
            }
          }
        }
        JOINT LeftShoulder
        {
          OFFSET 4.1327 10.5992 -0.575451
          CHANNELS 3 Zrotation Xrotation Yrotation
          JOINT LeftArm
          {
            OFFSET 0 13.9018 0
            CHANNELS 3 Zrotation Xrotation Yrotation
            JOINT LeftArmRoll
            {
              OFFSET 0 7.01789 0
              CHANNELS 3 Zrotation Xrotation Yrotation
              JOINT LeftForeArm
              {
                OFFSET 0 20.4406 0
                CHANNELS 3 Zrotation Xrotation Yrotation
                JOINT LeftForeArmRoll
                {
                  OFFSET 0 7.87515 0
                  CHANNELS 3 Zrotation Xrotation Yrotation
                  JOINT LeftHand
                  {
                    OFFSET 0 15.8037 0
                    CHANNELS 3 Zrotation Xrotation Yrotation
                    End Site
                    {
                      OFFSET 0 0 0
                    }
                  }
                }
              }
            }
          }
        }
      }
    }
  }
  JOINT RightUpLeg
  {
    OFFSET -7.06048 -1.2947 -1.0861
    CHANNELS 3 Zrotation Xrotation Yrotation
    JOINT RightUpLegRoll
    {
      OFFSET 0 18.5308 0
      CHANNELS 3 Zrotation Xrotation Yrotation
      JOINT RightLeg
      {
        OFFSET 0 -22.9476 0
        CHANNELS 3 Zrotation Xrotation Yrotation
        JOINT RightLegRoll
        {
          OFFSET 0 23.0226 0
          CHANNELS 3 Zrotation Xrotation Yrotation
          JOINT RightFoot
          {
            OFFSET 0 19.1625 0
            CHANNELS 3 Zrotation Xrotation Yrotation
            JOINT RightToeBase
            {
              OFFSET 0 16.0188 0
              CHANNELS 3 Zrotation Xrotation Yrotation
              End Site
              {
                OFFSET 0.00678979 7.75781 -0.894207
              }
            }
          }
        }
      }
    }
  }
  JOINT LeftUpLeg
  {
    OFFSET 7.06048 -1.2947 -1.0861
    CHANNELS 3 Zrotation Xrotation Yrotation
    JOINT LeftUpLegRoll
    {
      OFFSET 0 18.5309 0
      CHANNELS 3 Zrotation Xrotation Yrotation
      JOINT LeftLeg
      {
        OFFSET 0 22.9475 0
        CHANNELS 3 Zrotation Xrotation Yrotation
        JOINT LeftLegRoll
        {
          OFFSET 0 23.2355 0
          CHANNELS 3 Zrotation Xrotation Yrotation
          JOINT LeftFoot
          {
            OFFSET 0 18.9496 0
            CHANNELS 3 Zrotation Xrotation Yrotation
            JOINT LeftToeBase
            {
              OFFSET 0 16.0188 0
              CHANNELS 3 Zrotation Xrotation Yrotation
              End Site
              {
                OFFSET -0.0304289 7.75782 -0.894206
              }
            }
          }
        }
      }
    }
  }
}
MOTION
Frames: 13
Frame Time: 0.00208333
49.5591 95.4347 5.58273 -1.2935 -3.07031 -3.98785 0.879212 -2.10693 -0.00344094 1.75829 -0.212305 -0.0879569 1.75984 1.43232 -0.117401 1.77413 23.5777 11.1186 -8.69832 -9.5501 10.0862 68.9125 3.43166 0.494327 110.501 16.8726 -6.65661 -7.40259e-006 -5.90354e-007 2.43086e-006 23.0345 20.1626 -4.62252 -8.52876e-007 -6.96096e-006 -3.00669 8.0296 -4.9515 0.697773 -74.989 -0.00159079 1.8814 -107.843 17.6989 5.11563 -9.59435e-006 1.00026e-006 -1.58243e-006 -21.6926 23.9277 5.11187 -3.59266e-006 -3.77669e-006 3.00697 -8.02936 -4.95159 -0.69781 176.272 -1.52319 -2.10937 180 7.01536e-015 178.875 177.234 5.48471 179.575 3.76049e-006 -5.42252e-006 0.0150296 -17.8348 67.9886 19.5197 8.13015 25.2344 -3.48312 -170.99 -2.90815 -2.4468 4.54188e-006 -4.6773e-006 -1.22625 -3.22939 -8.17604 -0.0344859 -4.00688e-006 -8.28094e-006 -0.183669 21.1139 70.6845 -22.076 -8.12867 25.2403 3.47472 
49.56 95.4576 5.6065 -1.29911 -3.09623 -3.98813 0.881 -2.09924 0.00222656 1.76234 -0.196837 -0.0760599 1.76374 1.44778 -0.105569 1.82879 23.5611 11.0736 -8.73744 -9.55965 10.0524 68.9235 3.38187 0.468093 110.497 16.8914 -6.68047 -7.40259e-006 -5.90354e-007 2.43086e-006 23.0285 20.2276 -4.63792 -8.52876e-007 -6.96096e-006 -3.00669 8.0296 -4.9515 0.697773 -74.9528 0.0292599 1.86392 -107.859 17.7442 5.2114 -9.59435e-006 1.00026e-006 -1.58243e-006 -21.7481 23.9817 5.13756 -3.59266e-006 -3.77669e-006 3.00697 -8.02936 -4.95159 -0.69781 176.281 -1.55948 -2.11262 180 7.01535e-015 178.874 177.236 5.47249 179.575 3.76049e-006 -5.42252e-006 0.0150021 -17.8461 67.9896 19.5205 8.13015 25.2344 -3.48312 -170.985 -2.93654 -2.44613 4.54188e-006 -4.6773e-006 -1.22708 -3.21925 -8.18102 -0.0342693 -4.00688e-006 -8.28094e-006 -0.185525 21.1345 70.691 -22.0842 -8.12865 25.2401 3.47501 
49.5654 95.4392 5.59922 -1.30497 -3.12341 -3.98789 0.882792 -2.09126 0.00808772 1.76641 -0.18077 -0.0637281 1.76768 1.46385 -0.0933034 1.8838 23.543 11.0266 -8.77544 -9.56876 10.0171 68.9345 3.3303 0.44098 110.492 16.9104 -6.70379 -7.40259e-006 -5.90354e-007 2.43086e-006 23.0219 20.2916 -4.65296 -8.52876e-007 -6.96096e-006 -3.00669 8.0296 -4.9515 0.697773 -74.9153 0.0604858 1.84612 -107.879 17.7891 5.3067 -9.59435e-006 1.00026e-006 -1.58243e-006 -21.8022 24.0334 5.16238 -3.59266e-006 -3.77669e-006 3.00697 -8.02936 -4.95159 -0.69781 176.291 -1.59771 -2.1159 180 7.01535e-015 178.873 177.239 5.45967 179.575 3.76049e-006 -5.42252e-006 0.0149612 -17.8577 67.9907 19.5214 8.13015 25.2344 -3.48312 -170.981 -2.96654 -2.44487 4.54188e-006 -4.6773e-006 -1.22793 -3.20835 -8.18563 -0.0339852 -4.00688e-006 -8.28094e-006 -0.187444 21.1561 70.6979 -22.0929 -8.12863 25.2398 3.47544 
49.5586 95.4534 5.60117 -1.31099 -3.15146 -3.9873 0.884586 -2.08306 0.0140844 1.77051 -0.164283 -0.0510921 1.77163 1.48033 -0.0807336 1.93904 23.524 10.9784 -8.81266 -9.57757 9.98068 68.9454 3.27749 0.41325 110.489 16.9295 -6.72673 -7.40259e-006 -5.90354e-007 2.43086e-006 23.0149 20.3548 -4.66777 -8.52876e-007 -6.96096e-006 -3.00669 8.0296 -4.9515 0.697773 -74.8768 0.0919747 1.82811 -107.901 17.8339 5.40169 -9.59435e-006 1.00026e-006 -1.58243e-006 -21.8554 24.0835 5.1866 -3.59266e-006 -3.77669e-006 3.00697 -8.02936 -4.95159 -0.69781 176.301 -1.6373 -2.11922 180 7.01535e-015 178.872 177.242 5.44641 179.575 3.76049e-006 -5.42252e-006 0.0149108 -17.8696 67.9919 19.5224 8.13015 25.2344 -3.48312 -170.976 -2.99767 -2.4432 4.54188e-006 -4.6773e-006 -1.22881 -3.19692 -8.18998 -0.033654 -4.00688e-006 -8.28094e-006 -0.189407 21.1783 70.705 -22.1019 -8.1286 25.2394 3.47597 
49.5469 95.4459 5.60608 -1.31711 -3.18002 -3.9865 0.886381 -2.07475 0.0201586 1.77461 -0.147556 -0.0382823 1.77559 1.49706 -0.06799 1.99439 23.5045 10.9295 -8.84945 -9.58619 9.94366 68.9564 3.22398 0.385171 110.485 16.9487 -6.74946 -7.40259e-006 -5.90354e-007 2.43086e-006 23.0076 20.4177 -4.68243 -8.52876e-007 -6.96096e-006 -3.00669 8.0296 -4.9515 0.697773 -74.8376 0.123614 1.80996 -107.925 17.8785 5.49653 -9.59435e-006 1.00026e-006 -1.58243e-006 -21.9081 24.1327 5.21048 -3.59266e-006 -3.77669e-006 3.00697 -8.02936 -4.95159 -0.69781 176.31 -1.67766 -2.12254 180 7.01535e-015 178.871 177.245 5.43294 179.575 3.76049e-006 -5.42252e-006 0.0148551 -17.8818 67.9931 19.5234 8.13015 25.2344 -3.48312 -170.972 -3.02944 -2.44129 4.54188e-006 -4.6773e-006 -1.22969 -3.18518 -8.19418 -0.0332958 -4.00688e-006 -8.28094e-006 -0.191396 21.2009 70.7123 -22.111 -8.12857 25.2389 3.47656 
49.5438 95.456 5.60105 -1.32325 -3.20871 -3.98565 0.888174 -2.0664 0.026252 1.77871 -0.13077 -0.025429 1.77955 1.51384 -0.0552027 2.04974 23.4847 10.8803 -8.88613 -9.59477 9.9065 68.9673 3.17029 0.357007 110.482 16.9678 -6.77214 -7.40259e-006 -5.90354e-007 2.43086e-006 23.0002 20.4804 -4.69708 -8.52877e-007 -6.96096e-006 -3.00669 8.0296 -4.9515 0.697773 -74.7983 0.155291 1.79179 -107.949 17.9231 5.59137 -9.59435e-006 1.00026e-006 -1.58243e-006 -21.9608 24.1816 5.23429 -3.59266e-006 -3.77669e-006 3.00697 -8.02936 -4.95159 -0.69781 176.32 -1.71822 -2.12588 180 7.01535e-015 178.87 177.249 5.41939 179.575 3.76049e-006 -5.42252e-006 0.0147981 -17.8939 67.9944 19.5244 8.13015 25.2344 -3.48312 -170.967 -3.06137 -2.43932 4.54188e-006 -4.6773e-006 -1.23058 -3.17336 -8.19834 -0.0329309 -4.00688e-006 -8.28094e-006 -0.193391 21.2235 70.7196 -22.1202 -8.12854 25.2385 3.47716 
49.5313 95.4548 5.60468 -1.32934 -3.23714 -3.9849 0.889964 -2.05812 0.0323066 1.7828 -0.114103 -0.0126627 1.78349 1.5305 -0.0425021 2.10497 23.4653 10.8316 -8.92305 -9.60343 9.86964 68.9782 3.11695 0.329022 110.478 16.9869 -6.79494 -7.40259e-006 -5.90354e-007 2.43086e-006 22.993 20.5434 -4.71182 -8.52877e-007 -6.96096e-006 -3.00669 8.0296 -4.9515 0.697773 -74.7593 0.186895 1.77368 -107.973 17.9676 5.68636 -9.59435e-006 1.00026e-006 -1.58243e-006 -22.0137 24.231 5.25831 -3.59266e-006 -3.77669e-006 3.00697 -8.02936 -4.95159 -0.69781 176.33 -1.75839 -2.1292 180 7.01534e-015 178.869 177.252 5.40596 179.575 3.76049e-006 -5.42252e-006 0.0147437 -17.906 67.9956 19.5254 8.13015 25.2344 -3.48312 -170.963 -3.09299 -2.43748 4.54188e-006 -4.6773e-006 -1.23146 -3.1617 -8.20258 -0.0325794 -4.00688e-006 -8.28094e-006 -0.195373 21.246 70.7268 -22.1293 -8.12851 25.238 3.47773 
49.5251 95.4556 5.59946 -1.33531 -3.26495 -3.98441 0.89175 -2.04998 0.0382644 1.78686 -0.0977361 -0.000113681 1.78741 1.54687 -0.0300184 2.15998 23.4465 10.7838 -8.96054 -9.61232 9.83354 68.9889 3.0645 0.301483 110.474 17.006 -6.81801 -7.40259e-006 -5.90354e-007 2.43086e-006 22.9863 20.6068 -4.72677 -8.52876e-007 -6.96096e-006 -3.00669 8.0296 -4.9515 0.697773 -74.7209 0.218311 1.75572 -107.995 18.0122 5.78166 -9.59435e-006 1.00026e-006 -1.58243e-006 -22.0674 24.2816 5.2828 -3.59266e-006 -3.77669e-006 3.00697 -8.02936 -4.95159 -0.69781 176.339 -1.79759 -2.13251 180 7.01534e-015 178.868 177.255 5.39283 179.575 3.76049e-006 -5.42252e-006 0.0146961 -17.9178 67.9968 19.5264 8.13015 25.2344 -3.48312 -170.958 -3.12379 -2.43592 4.54188e-006 -4.6773e-006 -1.23233 -3.15042 -8.207 -0.0322616 -4.00688e-006 -8.28094e-006 -0.197324 21.268 70.7339 -22.1382 -8.12849 25.2376 3.47823 
49.4859 95.4594 5.62191 -1.34109 -3.29175 -3.98434 0.893531 -2.04208 0.044067 1.79088 -0.0818484 0.0120875 1.79129 1.56275 -0.0178818 2.21466 23.4287 10.7375 -8.99894 -9.62155 9.79865 68.9996 3.01345 0.274652 110.47 17.0249 -6.84153 -7.40259e-006 -5.90354e-007 2.43086e-006 22.9801 20.6711 -4.74204 -8.52876e-007 -6.96096e-006 -3.00669 8.0296 -4.9515 0.697773 -74.6837 0.249428 1.73803 -108.014 18.0569 5.87743 -9.59435e-006 1.00026e-006 -1.58243e-006 -22.1222 24.3339 5.30803 -3.59266e-006 -3.77669e-006 3.00697 -8.02936 -4.95159 -0.69781 176.349 -1.83523 -2.13579 180 7.01534e-015 178.868 177.258 5.38019 179.575 3.76049e-006 -5.42252e-006 0.0146591 -17.9293 67.9978 19.5273 8.13015 25.2344 -3.48312 -170.953 -3.15331 -2.43484 4.54188e-006 -4.6773e-006 -1.23318 -3.13974 -8.21172 -0.0319978 -4.00688e-006 -8.28094e-006 -0.199224 21.2894 70.7406 -22.1468 -8.12847 25.2374 3.47862 
49.4821 95.4584 5.61446 -1.34661 -3.31717 -3.98482 0.895304 -2.03451 0.0496566 1.79485 -0.0666197 0.0238106 1.79513 1.57798 -0.00622262 2.26891 23.4125 10.6934 -9.03859 -9.63126 9.76543 69.0102 2.96435 0.248796 110.465 17.0437 -6.86565 -7.40259e-006 -5.90354e-007 2.43086e-006 22.9747 20.7364 -4.75773 -8.52876e-007 -6.96096e-006 -3.00669 8.0296 -4.9515 0.697773 -74.648 0.280134 1.72068 -108.031 18.1018 5.97381 -9.59435e-006 1.00026e-006 -1.58243e-006 -22.1786 24.3887 5.33428 -3.59266e-006 -3.77669e-006 3.00697 -8.02936 -4.95159 -0.69781 176.358 -1.87074 -2.13903 180 7.01534e-015 178.867 177.26 5.36822 179.575 3.76049e-006 -5.42252e-006 0.014637 -17.9404 67.9987 19.5281 8.13015 25.2344 -3.48312 -170.948 -3.18105 -2.43441 4.54188e-006 -4.6773e-006 -1.23399 -3.1299 -8.21686 -0.0318081 -4.00688e-006 -8.28094e-006 -0.201055 21.3097 70.747 -22.1549 -8.12845 25.2372 3.47885 
49.4914 95.4599 5.59846 -1.35179 -3.34083 -3.98603 0.897069 -2.02736 0.0549749 1.79876 -0.0522298 0.034925 1.79892 1.59237 0.00482896 2.32262 23.3981 10.6519 -9.07983 -9.64159 9.73433 69.0206 2.91772 0.224178 110.46 17.0623 -6.89055 -7.40259e-006 -5.90354e-007 2.43086e-006 22.9704 20.8031 -4.77398 -8.52876e-007 -6.96096e-006 -3.00669 8.0296 -4.9515 0.697773 -74.6143 0.310315 1.70378 -108.042 18.1469 6.07098 -9.59435e-006 1.00026e-006 -1.58243e-006 -22.2371 24.4467 5.36182 -3.59266e-006 -3.77669e-006 3.00697 -8.02936 -4.95159 -0.69781 176.368 -1.90354 -2.14222 180 7.01533e-015 178.866 177.263 5.35708 179.575 3.76049e-006 -5.42252e-006 0.0146336 -17.9509 67.9995 19.5287 8.13015 25.2344 -3.48312 -170.942 -3.20654 -2.43481 4.54188e-006 -4.6773e-006 -1.23477 -3.12113 -8.22251 -0.0317128 -4.00688e-006 -8.28094e-006 -0.202798 21.3289 70.7529 -22.1623 -8.12845 25.2371 3.47889 
49.4727 95.4607 5.60269 -1.35657 -3.36235 -3.9881 0.898824 -2.02071 0.0599639 1.8026 -0.0388585 0.0453005 1.80264 1.60574 0.0151426 2.37569 23.386 10.6136 -9.12299 -9.65267 9.70581 69.031 2.8741 0.201064 110.454 17.0806 -6.91638 -7.40259e-006 -5.90354e-007 2.43086e-006 22.9673 20.8715 -4.79088 -8.52877e-007 -6.96096e-006 -3.00669 8.0296 -4.9515 0.697773 -74.5829 0.33986 1.68742 -108.049 18.1923 6.16908 -9.59435e-006 1.00026e-006 -1.58243e-006 -22.2979 24.5086 5.39092 -3.59266e-006 -3.77669e-006 3.00697 -8.02936 -4.95159 -0.69781 176.377 -1.93303 -2.14534 180 7.01533e-015 178.865 177.265 5.34698 179.575 3.76049e-006 -5.42252e-006 0.0146531 -17.9606 68.0001 19.5292 8.13015 25.2344 -3.48312 -170.937 -3.22928 -2.4362 4.54188e-006 -4.6773e-006 -1.2355 -3.11365 -8.2288 -0.0317321 -4.00688e-006 -8.28094e-006 -0.204434 21.3465 70.7582 -22.1691 -8.12846 25.2373 3.47868 
49.4476 95.4633 5.61491 -1.36088 -3.38136 -3.9912 0.900568 -2.01466 0.0645654 1.80636 -0.0266854 0.0548066 1.8063 1.61791 0.0245881 2.42802 23.3767 10.5791 -9.16841 -9.66463 9.68033 69.0412 2.83401 0.179716 110.447 17.0987 -6.94332 -7.40259e-006 -5.90354e-007 2.43086e-006 22.9656 20.9419 -4.80856 -8.52876e-007 -6.96096e-006 -3.00669 8.0296 -4.9515 0.697773 -74.5544 0.368656 1.6717 -108.048 18.2382 6.26826 -9.59435e-006 1.00026e-006 -1.58243e-006 -22.3617 24.5749 5.42187 -3.59266e-006 -3.77669e-006 3.00697 -8.02936 -4.95159 -0.69781 176.385 -1.95864 -2.14839 180 7.01533e-015 178.864 177.266 5.33806 179.575 3.76049e-006 -5.42252e-006 0.0146994 -17.9696 68.0004 19.5295 8.13015 25.2344 -3.48312 -170.93 -3.24881 -2.43877 4.54188e-006 -4.6773e-006 -1.23618 -3.10768 -8.23584 -0.0318863 -4.00688e-006 -8.28094e-006 -0.205944 21.3623 70.7629 -22.1751 -8.12849 25.2377 3.4782 
